<svg id="Layer_1" data-name="Layer 1" xmlns="http://www.w3.org/2000/svg" viewBox="0 0 914 524"><defs><style>.cls-1{fill:#fff;}.cls-2{fill:#ff7900;}.cls-3{fill:#f94c00;}.cls-4{fill:#281818;}.cls-5{fill:#424141;}.cls-6{fill:#494343;}</style></defs><title>404</title><path class="cls-1" d="M744.71,265a372.7,372.7,0,0,0,104.2,259H-.29V0H854.8A372.84,372.84,0,0,0,744.71,265Z" transform="translate(0.29)"/><path id="right4" d="M598.37,389.79v-95.4H435.07v-31.3l156.67-224h51.32V257.44h49v36.95h-49v95.4Zm0-132.35V139.92q0-27.61,1.62-55.24h-1.62c-10.82,20.58-19.47,35.74-29.2,52l-86,119.68v1.09Z" transform="translate(0.29)"/><path id="left4" d="M258.85,264.38a66,66,0,0,0-3.75-12.55,102,102,0,0,0-6.27-12.55c-4.89-8.38-10.79-16.74-15.92-25.11a109.51,109.51,0,0,1-11.78-25.11c-1.31-4.18-2.08-8.37-3-12.55s-1.74-8.37-2.61-12.55q-2.64-13-5-26-2.17-12.1-4.07-24.19C203.85,97,201.62,80.26,200,63.53c-.19-1.94-.37-3.89-.55-5.83-1.35-14.8-2.35-29.59-2.25-44.39h-3.44c.09,14.8-.9,29.59-2.25,44.39H161.9L13.38,270.23v29.7H152.71L156.1,302c1.68,1,3.43,2.1,4.94,3.14l2.35,1.57c.71.53,1.5,1.05,2.16,1.58.87.65,1.7,1.31,2.48,2a36,36,0,0,1,4.39,4.3c3.68,4.19,4.07,8.37,5.55,12.56,1.25,4.17,2.49,8.36,3.62,12.55q3.48,12.56,6.12,25.1c1.77,8.37,3.24,16.74,4.33,25.11,0,.22.06.44.08.66.52,4,.91,7.92,1.22,11.89a125.47,125.47,0,0,1,.4,12.56h3.44a122.56,122.56,0,0,1,.4-12.56c.31-4,.7-7.92,1.21-11.89l.09-.66c1.08-8.37,2.56-16.74,4.32-25.11s3.81-16.73,6.12-25.1c.4-1.46.8-2.92,1.22-4.37.78-2.73,1.59-5.46,2.41-8.18,1.48-4.19,1.86-8.37,5.54-12.56a42,42,0,0,1,6.88-6.27c.66-.53,1.44-1.05,2.16-1.58l2.34-1.57c1.51-1,3.27-2.09,4.94-3.14l3.4-2.11c5.62-3.48,11.23-6.95,15-10.44a27.06,27.06,0,0,0,3.9-4.28,18.36,18.36,0,0,0,1.26-2,12.6,12.6,0,0,0,1.51-6.27A60.56,60.56,0,0,0,258.85,264.38ZM158,214.17c-5.12,8.37-11,16.73-15.92,25.11a103.28,103.28,0,0,0-6.26,12.55,66,66,0,0,0-3.76,12.55l0,.22H59v-1L140.38,150.4C149.6,135,157.8,120.69,168,101.23h1.54Q168,127.35,168,153.47V194.2A118.85,118.85,0,0,1,158,214.17Z" transform="translate(0.29)"/><g id="middle-arm"><path class="cls-2" d="M223.25,428a120.18,120.18,0,0,0,8.59-9.17c2.73-3.18,5.4-6.44,8-9.79,5.15-6.68,10-13.64,14.7-20.81s9.14-14.53,13.42-22.08c2.16-3.76,4.25-7.59,6.31-11.44,1.92-4,4.6-7.24,5-12.8a42.66,42.66,0,0,0-.42-9.3c-.1-.84-.28-1.76-.42-2.64l-.55-2.76c-.33-1.81-.83-3.79-1.27-5.71-1.76-7.68-3.88-15.72-4.16-21.91a23.67,23.67,0,0,1,.8-8.08,12.48,12.48,0,0,1,3.37-5.51,60.3,60.3,0,0,1,9.62-8.14,66.8,66.8,0,0,1,11.53-6.22A101.8,101.8,0,0,1,311,267.24c9.37-2.46,19.47-4.2,29-6.5a109.74,109.74,0,0,0,26.08-9.42c3.9-2,7.39-4.45,11-6.76s7.15-4.68,10.72-7q21.35-14.16,41.91-29.11c13.69-10,27.1-20.24,40.1-30.92s25.72-21.61,37.49-33.52l2.43,2.43c-11.91,11.76-22.84,24.51-33.53,37.49S455.27,210.31,445.3,224s-19.67,27.68-29.11,41.9c-2.35,3.58-4.72,7.13-7,10.73s-4.73,7.1-6.76,11A109.39,109.39,0,0,0,393,313.71c-2.3,9.54-4,19.64-6.5,29A102.31,102.31,0,0,1,382,356a66.8,66.8,0,0,1-6.22,11.53,60.3,60.3,0,0,1-8.14,9.62,12.48,12.48,0,0,1-5.51,3.37,23.44,23.44,0,0,1-8.08.79c-6.19-.27-14.23-2.39-21.91-4.15-1.92-.44-3.9-.94-5.71-1.27l-2.77-.55c-.87-.14-1.79-.32-2.63-.42a42,42,0,0,0-9.3-.42c-5.56.35-8.8,3-12.8,5s-7.68,4.15-11.44,6.31q-11.32,6.42-22.08,13.42c-7.17,4.67-14.13,9.55-20.81,14.7-3.36,2.56-6.61,5.23-9.8,8a121.94,121.94,0,0,0-9.16,8.59Z" transform="translate(0.29)"/></g><g id="bottom-arm"><path class="cls-3" d="M237,444.51a122.57,122.57,0,0,0,12.56-.41c4.18-.32,8.36-.73,12.55-1.29,8.37-1.08,16.74-2.56,25.11-4.32s16.73-3.81,25.1-6.12c4.19-1.14,8.37-2.37,12.56-3.63,4.18-1.48,8.37-1.87,12.55-5.55a41.94,41.94,0,0,0,6.28-6.87c.52-.67,1-1.44,1.57-2.16l1.57-2.34c1-1.52,2.09-3.27,3.13-4.94,4.19-6.68,8.37-13.86,12.56-18.43a23.46,23.46,0,0,1,6.28-5.16,12.49,12.49,0,0,1,6.27-1.51,60.55,60.55,0,0,1,12.56,1.05,66.73,66.73,0,0,1,12.55,3.76,103.28,103.28,0,0,1,12.55,6.26c8.37,4.89,16.74,10.8,25.11,15.92a109.75,109.75,0,0,0,25.11,11.79c4.18,1.31,8.37,2.08,12.55,3s8.37,1.75,12.55,2.62c16.74,3.37,33.48,6.43,50.22,9s33.48,4.85,50.21,6.49,33.48,2.91,50.22,2.81V448c-16.74-.11-33.48,1.18-50.22,2.8s-33.47,3.87-50.21,6.49-33.48,5.67-50.22,9.05c-4.18.87-8.36,1.7-12.55,2.61s-8.37,1.68-12.55,3a109.7,109.7,0,0,0-25.11,11.78c-8.37,5.12-16.74,11-25.11,15.92a102,102,0,0,1-12.55,6.27,66.73,66.73,0,0,1-12.55,3.76,60.55,60.55,0,0,1-12.56,1.05,12.51,12.51,0,0,1-6.27-1.52,23.22,23.22,0,0,1-6.28-5.15c-4.19-4.58-8.37-11.75-12.56-18.43-1-1.67-2.09-3.42-3.13-4.94l-1.57-2.34c-.53-.72-1.05-1.5-1.57-2.16a42.45,42.45,0,0,0-6.28-6.88c-4.18-3.68-8.37-4.06-12.55-5.54-4.19-1.26-8.37-2.49-12.56-3.63q-12.56-3.46-25.1-6.12c-8.37-1.76-16.74-3.24-25.11-4.32-4.19-.56-8.37-1-12.55-1.3A122.56,122.56,0,0,0,237,448Z" transform="translate(0.29)"/></g><path id="middle-shuttle" class="cls-4" d="M332.06,135.36a1.77,1.77,0,0,0-.17-1.43,7.6,7.6,0,0,0-1.07-1.58,23.41,23.41,0,0,0-3.85-3.42c-.74-.59-1.71-1.21-2.57-1.82l-1.48-.94c-.49-.31-1-.62-1.55-1-1.08-.64-2.14-1.28-3.38-1.94a18.08,18.08,0,0,0-5.24-2.25l-3.21-.87-1.61-.43-.4-.11-.46-.11-1.16-.28L296.62,117l-17.68-4.24c-4.54-1.19-6.64-2-6.41-2.43,0-.47.4-.87,1.26-1.2,1.7-.67,5.36-1,10.4-1.14l15.84-.28,4-.06c1.09-.06,2.27-.11,3.28-.18l1.43-.12.71-.07.36,0,.29,0c.76-.11,1.59-.21,2.3-.33a20.21,20.21,0,0,0,3.15-.9l2.82-1c.92-.33,1.76-.66,2.64-1s1.76-.65,2.54-1l2.41-1,2.22-1a41.51,41.51,0,0,0,7.31-4.45,14.8,14.8,0,0,0,2.45-2.42,5,5,0,0,0,1.19-2.62l3.39.54a4.88,4.88,0,0,0,.31,2.86A14.35,14.35,0,0,0,344.36,98a40.65,40.65,0,0,0,5.56,6.52l1.77,1.68,2,1.73c.63.57,1.37,1.15,2.1,1.74s1.43,1.16,2.19,1.75l2.39,1.79a19.35,19.35,0,0,0,2.71,1.84c.64.34,1.39.69,2.08,1l.26.13.33.14.66.28,1.32.56c.94.38,2.05.8,3.06,1.19l3.74,1.3,15,5.21c4.74,1.7,8.11,3.17,9.51,4.34.72.58,1,1.09.83,1.53.08.49-2.17.59-6.85.31l-18.12-1.5-9.51-.82-1.19-.1-.47,0-.41,0-1.67-.1-3.32-.18a18.06,18.06,0,0,0-5.68.5c-1.38.25-2.59.52-3.82.79-.63.13-1.2.28-1.76.42l-1.7.43c-1,.31-2.13.6-3,.92a23.36,23.36,0,0,0-4.72,2.06,7.3,7.3,0,0,0-1.51,1.16,1.77,1.77,0,0,0-.61,1.31Z" transform="translate(0.29)"/><path id="bottom-shuttle" class="cls-5" d="M417.54,171.77a1.79,1.79,0,0,0-1.17-.85,7.38,7.38,0,0,0-1.89-.28,22.85,22.85,0,0,0-5.12.5c-.94.14-2.06.44-3.09.66l-1.69.45c-.56.14-1.13.29-1.75.49-1.21.36-2.39.71-3.72,1.16a18,18,0,0,0-5.2,2.33L391.09,178l-1.41.89-.35.22-.4.26-1,.66L380,185.37l-15.11,10.12c-3.95,2.52-6,3.52-6.13,3.06-.35-.32-.37-.89,0-1.75.66-1.69,2.89-4.62,6.21-8.41l10.55-11.82,2.64-3c.69-.84,1.46-1.74,2.09-2.53l.88-1.13.44-.57.22-.28.17-.24c.43-.64.92-1.31,1.31-1.92a18.29,18.29,0,0,0,1.48-2.93L386,161.3c.39-.89.71-1.74,1.07-2.61s.71-1.73,1-2.54l.89-2.46.73-2.34a41.14,41.14,0,0,0,1.7-8.4,15.31,15.31,0,0,0-.12-3.43,4.88,4.88,0,0,0-1.12-2.65l2.7-2.13a4.94,4.94,0,0,0,2.31,1.72,15.18,15.18,0,0,0,3.31.92,40.91,40.91,0,0,0,8.56.33l2.45-.16,2.6-.28c.85-.08,1.78-.22,2.7-.36s1.83-.26,2.79-.42l2.92-.54a19.31,19.31,0,0,0,3.2-.75c.68-.24,1.45-.55,2.17-.82l.27-.1.33-.15.65-.29,1.31-.59c.92-.43,2-1,2.95-1.44l3.5-1.87,14-7.46c4.46-2.33,7.83-3.81,9.64-4,.91-.13,1.46,0,1.69.44.41.26-1,2-4.42,5.24l-13.4,12.29-7.05,6.43-.88.81L434,144l-.29.29-1.2,1.16-2.39,2.32a18.43,18.43,0,0,0-3.49,4.51c-.75,1.18-1.37,2.25-2,3.34-.33.56-.61,1.07-.88,1.58l-.84,1.54c-.46,1-1,2-1.37,2.84a23.49,23.49,0,0,0-1.69,4.87,6.8,6.8,0,0,0-.17,1.89,1.74,1.74,0,0,0,.54,1.34Z" transform="translate(0.29)"/><path id="top-shuttle" class="cls-6" d="M347.59,56.63c.11-.26-.09-.51-.41-.77-.15-.12-.36-.25-.56-.38s-.46-.25-.74-.38-.56-.25-.89-.38l-1-.38-2.48-.77-.61-.19-.76-.19-1.53-.38-1.54-.38-.77-.2-.9-.19-3.69-.76-1.84-.38-1.39-.19-2.22-.19-3.31-.2-1.66-.09-.88,0-1.19,0-9.52-.38L291.56,49l-2.73-.19-1.33-.1-.66-.05a2.87,2.87,0,0,1-.4,0l-.71-.09-.34,0-.19-.05c-.3-.06-.33-.12-.35-.19-.08-.25.26-.51,1.06-.76l.68-.19.86-.19,1.09-.19.55-.1.6-.1,3-.38,1.52-.19L295,46l1-.1,15.6-1.53,3.89-.38,3-.38,1.51-.19.76-.1.37-.05.29,0c.72-.13,1.54-.26,2.19-.39l1.67-.38,1.27-.38,2.54-.76,2.53-.77,1.27-.38c.43-.13.76-.26,1.14-.38l2.22-.77,2-.76a42.87,42.87,0,0,0,6.51-3.06l.61-.38.53-.38a9.16,9.16,0,0,0,.91-.77c.48-.51.87-1,.76-1.52H351c-.11.51.27,1,.76,1.52a9.16,9.16,0,0,0,.91.77l.53.38.61.38a42.71,42.71,0,0,0,6.5,3.06l2,.76,2.22.77c.38.12.7.25,1.14.38l1.27.38,2.53.77,2.53.76,1.28.38,1.66.38c.66.13,1.47.26,2.2.39l.29,0,.37.05.76.1,1.5.19,3,.38,3.89.38,15.6,1.53,1,.1.78.09,1.52.19,3,.38.61.1.55.1,1.09.19.86.19.68.19c.8.25,1.14.51,1.06.76,0,.07-.05.13-.35.19l-.19.05-.34,0-.71.09a2.87,2.87,0,0,1-.4,0l-.66.05-1.33.1-2.73.19-18.13.76-9.52.38-1.19,0-.88,0-1.66.09-3.31.2-2.23.19-1.38.19-1.85.38-3.68.76-.9.19-.77.2-1.54.38-1.53.38-.76.19-.62.19-2.47.77-1,.38c-.34.13-.59.25-.89.38s-.49.25-.74.38a6,6,0,0,0-.56.38c-.32.26-.52.51-.41.77Z" transform="translate(0.29)"/><path class="cls-3" d="M913.71,0V524h-64.8A374,374,0,0,1,854.8,0Z" transform="translate(0.29)"/></svg>