<?xml version="1.0" standalone="no"?><svg xmlns="http://www.w3.org/2000/svg" viewBox="0 0 1440 320"><path fill="#0099ff" fill-opacity="1" d="M0,128L30,154.7C60,181,120,235,180,234.7C240,235,300,181,360,154.7C420,128,480,128,540,154.7C600,181,660,235,720,224C780,213,840,139,900,112C960,85,1020,107,1080,144C1140,181,1200,235,1260,256C1320,277,1380,267,1410,261.3L1440,256L1440,0L1410,0C1380,0,1320,0,1260,0C1200,0,1140,0,1080,0C1020,0,960,0,900,0C840,0,780,0,720,0C660,0,600,0,540,0C480,0,420,0,360,0C300,0,240,0,180,0C120,0,60,0,30,0L0,0Z"></path></svg>